<svg xmlns="http://www.w3.org/2000/svg" xmlns:xlink="http://www.w3.org/1999/xlink" width="500" zoomAndPan="magnify" viewBox="0 0 375 374.999991" height="500" preserveAspectRatio="xMidYMid meet" version="1.0"><defs><g/><clipPath id="a5d3c39a60"><rect x="0" width="156" y="0" height="117"/></clipPath></defs><g transform="matrix(1, 0, 0, 1, 111, 129)"><g clip-path="url(#a5d3c39a60)"><g fill="#2663eb" fill-opacity="1"><g transform="translate(0.858513, 88.278869)"><g><path d="M 30.765625 -60.453125 C 34.929688 -60.453125 38.5 -59.707031 41.46875 -58.21875 C 44.445312 -56.726562 46.710938 -54.597656 48.265625 -51.828125 C 49.828125 -49.054688 50.609375 -45.796875 50.609375 -42.046875 C 50.609375 -38.304688 49.828125 -35.054688 48.265625 -32.296875 C 46.710938 -29.535156 44.445312 -27.40625 41.46875 -25.90625 C 38.5 -24.40625 34.929688 -23.65625 30.765625 -23.65625 L 16.25 -23.65625 L 16.25 0 L 9.140625 0 L 9.140625 -60.453125 Z M 30.5625 -29.734375 C 38.96875 -29.734375 43.171875 -33.835938 43.171875 -42.046875 C 43.171875 -50.296875 38.96875 -54.421875 30.5625 -54.421875 L 16.25 -54.421875 L 16.25 -29.734375 Z M 30.5625 -29.734375 "/></g></g></g><g fill="#2663eb" fill-opacity="1"><g transform="translate(55.97739, 88.278869)"><g><path d="M 3.640625 -2.765625 C 3.640625 -6.109375 4.003906 -8.796875 4.734375 -10.828125 C 5.460938 -12.867188 6.707031 -14.769531 8.46875 -16.53125 C 10.238281 -18.300781 13.050781 -20.59375 16.90625 -23.40625 L 23.5625 -28.25 C 26.019531 -30.039062 28.019531 -31.691406 29.5625 -33.203125 C 31.101562 -34.722656 32.320312 -36.367188 33.21875 -38.140625 C 34.113281 -39.921875 34.5625 -41.914062 34.5625 -44.125 C 34.5625 -47.707031 33.609375 -50.40625 31.703125 -52.21875 C 29.804688 -54.039062 26.832031 -54.953125 22.78125 -54.953125 C 19.582031 -54.953125 16.742188 -54.207031 14.265625 -52.71875 C 11.785156 -51.226562 9.800781 -49.117188 8.3125 -46.390625 L 7.359375 -46.234375 L 3.09375 -50.703125 C 5.132812 -54.003906 7.816406 -56.597656 11.140625 -58.484375 C 14.460938 -60.378906 18.34375 -61.328125 22.78125 -61.328125 C 27.082031 -61.328125 30.648438 -60.59375 33.484375 -59.125 C 36.328125 -57.664062 38.425781 -55.644531 39.78125 -53.0625 C 41.132812 -50.488281 41.8125 -47.507812 41.8125 -44.125 C 41.8125 -41.414062 41.242188 -38.890625 40.109375 -36.546875 C 38.984375 -34.210938 37.382812 -32.007812 35.3125 -29.9375 C 33.25 -27.875 30.660156 -25.695312 27.546875 -23.40625 L 20.796875 -18.484375 C 18.285156 -16.640625 16.351562 -15.066406 15 -13.765625 C 13.65625 -12.472656 12.671875 -11.210938 12.046875 -9.984375 C 11.429688 -8.753906 11.125 -7.382812 11.125 -5.875 L 41.8125 -5.875 L 41.8125 0 L 3.640625 0 Z M 3.640625 -2.765625 "/></g></g></g><g fill="#2663eb" fill-opacity="1"><g transform="translate(100.882795, 88.278869)"><g><path d="M 37.84375 0 L 31.09375 0 L 31.09375 -14.4375 L 2.765625 -14.4375 L 2.765625 -20.140625 L 29.4375 -60.453125 L 37.84375 -60.453125 L 37.84375 -20.140625 L 48.296875 -20.140625 L 48.296875 -14.4375 L 37.84375 -14.4375 Z M 11.125 -21 L 11.5 -20.140625 L 31.09375 -20.140625 L 31.09375 -50.609375 L 30.140625 -50.78125 Z M 11.125 -21 "/></g></g></g></g></g></svg>